# File created by Blade
# Date/Time:  Wed Apr 08 17:31:39 2015
# Frame Rate: 120.000 fps
#------------------------------------------------------
:FULLY-SPECIFIED
:DEGREES
772
root -0.419674 22.413657 0.690961 -738.146293 -55.507758 564.398012
Spine 200.979542 -12.946978 -7.083931
Head 16.409183 0.988091 5.370471
LeftShoulder -7.724144 25.125247 23.709311
LeftArm 17.570088 8.438632 -83.321492
LeftForeArm 16.537844 0.000000 39.282529
LeftHand -13.003223 -0.000000 -0.083907
LeftHandThumb1 -26.253704 0.000000 33.147579
RightShoulder -26.963179 -52.044335 -6.736423
RightArm 56.927774 -7.138599 38.503958
RightForeArm 4.619153 0.000000 32.563490
RightHand 4.588052 -0.000000 1.887329
RightHandThumb1 -24.326973 -0.000000 -32.862282
LeftUpLeg 132.998307 -24.984691 -25.419312
LeftLeg 126.072851 -0.000000 -0.000000
LeftFoot -31.267072 6.589371 -16.496243
LeftToeBase -22.272856 -0.000000 0.000000
RightUpLeg 120.847873 31.875146 -0.379687
RightLeg 107.453461 -0.000000 -0.000000
RightFoot -39.004334 35.918909 -11.417792
RightToeBase 5.825489 -0.000000 -0.000000
773
root -0.403514 22.412853 0.759241 -738.188843 -55.817076 564.326915
Spine 201.234496 -12.471944 -7.205992
Head 16.380906 1.005287 5.069452
LeftShoulder -7.655788 24.981688 23.628833
LeftArm 17.544470 8.271446 -83.578175
LeftForeArm 16.680888 -0.000000 39.101583
LeftHand -12.788030 0.000000 -0.183932
LeftHandThumb1 -26.253704 0.000000 33.147579
RightShoulder -26.890778 -52.032682 -6.962265
RightArm 56.814080 -6.990968 38.438997
RightForeArm 4.855364 -0.000000 32.566304
RightHand 4.613980 -0.000000 1.856556
RightHandThumb1 -24.326973 -0.000000 -32.862282
LeftUpLeg 132.676103 -24.690204 -24.947808
LeftLeg 126.132993 -0.000000 -0.000000
LeftFoot -31.304169 6.847131 -16.538627
LeftToeBase -22.187032 -0.000000 0.000000
RightUpLeg 120.881941 32.094162 -0.107555
RightLeg 107.412344 -0.000000 -0.000000
RightFoot -38.886731 35.920358 -11.314448
RightToeBase 5.693222 -0.000000 -0.000000
774
root -0.388142 22.414073 0.762454 -738.125028 -55.933895 564.194610
Spine 201.360369 -12.316879 -7.131434
Head 16.412836 1.013094 5.034588
LeftShoulder -7.605180 24.943527 23.619745
LeftArm 17.577944 8.227356 -83.499393
LeftForeArm 16.511166 -0.000000 39.092905
LeftHand -12.790589 -0.000000 -0.157155
LeftHandThumb1 -26.253704 0.000000 33.147579
RightShoulder -26.905197 -52.027020 -6.976012
RightArm 56.785890 -6.965126 38.484337
RightForeArm 4.992861 -0.000000 32.471609
RightHand 4.562476 -0.000000 1.897012
RightHandThumb1 -24.326973 -0.000000 -32.862282
LeftUpLeg 132.640528 -24.598741 -24.829751
LeftLeg 126.099598 -0.000000 -0.000000
LeftFoot -31.325026 6.813209 -16.544749
LeftToeBase -22.143219 -0.000000 0.000000
RightUpLeg 120.877330 32.035557 -0.009531
RightLeg 107.470806 -0.000000 -0.000000
RightFoot -38.907827 35.668760 -11.350568
RightToeBase 5.392389 -0.000000 -0.000000
775
root -0.360213 22.408997 0.770636 -738.457947 -56.055210 564.222728
Spine 201.689385 -12.147723 -7.141597
Head 16.503070 0.989907 5.071110
LeftShoulder -7.549315 24.907609 23.714935
LeftArm 17.591873 8.187741 -83.459490
LeftForeArm 16.576046 -0.000000 39.070378
LeftHand -12.803870 0.000000 -0.211837
LeftHandThumb1 -26.253704 0.000000 33.147579
RightShoulder -26.969265 -52.080853 -6.877195
RightArm 56.752025 -6.941223 38.508500
RightForeArm 5.221178 -0.000000 32.371542
RightHand 4.575697 0.000000 1.881895
RightHandThumb1 -24.326973 -0.000000 -32.862282
LeftUpLeg 132.803973 -24.300689 -24.901083
LeftLeg 126.119030 -0.000000 -0.000000
LeftFoot -31.378700 6.722046 -16.615839
LeftToeBase -22.051841 -0.000000 0.000000
RightUpLeg 121.134335 31.982699 0.140804
RightLeg 107.538861 -0.000000 -0.000000
RightFoot -38.873896 35.363646 -11.344048
RightToeBase 5.059935 -0.000000 -0.000000
776
root -0.342761 22.410660 0.712322 -738.476130 -55.981486 564.177346
Spine 201.726146 -12.342070 -6.939621
Head 16.640225 0.931617 5.377044
LeftShoulder -7.436580 24.912756 23.970137
LeftArm 17.692163 8.148231 -83.256693
LeftForeArm 16.530428 -0.000000 39.028130
LeftHand -12.804971 -0.000000 -0.260351
LeftHandThumb1 -26.253704 0.000000 33.147579
RightShoulder -27.126317 -52.135131 -6.565221
RightArm 56.800856 -7.004339 38.640765
RightForeArm 5.382361 -0.000000 32.196951
RightHand 4.518261 -0.000000 1.767690
RightHandThumb1 -24.326973 -0.000000 -32.862282
LeftUpLeg 133.070013 -24.457794 -25.241659
LeftLeg 126.023497 -0.000000 -0.000000
LeftFoot -31.358492 6.509574 -16.429553
LeftToeBase -22.060839 -0.000000 0.000000
RightUpLeg 121.163386 31.657222 0.028431
RightLeg 107.682639 -0.000000 -0.000000
RightFoot -39.011327 34.864338 -11.480562
RightToeBase 4.862813 -0.000000 -0.000000
777
root -0.322893 22.412453 0.782002 -738.570822 -56.362845 564.147953
Spine 201.992850 -11.810030 -7.071257
Head 16.670332 1.037658 5.038028
LeftShoulder -7.394140 24.800410 23.812929
LeftArm 17.708769 8.032585 -83.379812
LeftForeArm 16.641134 -0.000000 38.994431
LeftHand -12.767450 -0.000000 -0.223501
LeftHandThumb1 -26.253704 0.000000 33.147579
RightShoulder -26.963003 -52.126541 -6.916284
RightArm 56.710077 -6.923177 38.629721
RightForeArm 5.647639 -0.000000 32.054455
RightHand 4.581194 -0.000000 1.662979
RightHandThumb1 -24.326973 -0.000000 -32.862282
LeftUpLeg 132.747925 -24.107612 -24.785825
LeftLeg 126.066020 -0.000000 -0.000000
LeftFoot -31.420094 6.683621 -16.456884
LeftToeBase -21.973716 -0.000000 0.000000
RightUpLeg 121.237654 31.881245 0.359679
RightLeg 107.632634 -0.000000 -0.000000
RightFoot -38.791612 35.033589 -11.195267
RightToeBase 4.751750 -0.000000 -0.000000
778
root -0.301401 22.411037 0.792710 -738.866788 -56.475559 564.313872
Spine 202.207989 -11.675129 -7.147725
Head 16.769698 1.038492 5.063508
LeftShoulder -7.325743 24.765827 23.861253
LeftArm 17.806917 7.995717 -83.229920
LeftForeArm 16.716758 -0.000000 39.018308
LeftHand -12.770898 -0.000000 -0.396596
LeftHandThumb1 -26.253704 0.000000 33.147579
RightShoulder -26.994802 -52.156355 -6.901850
RightArm 56.709773 -6.927560 38.704872
RightForeArm 5.803264 -0.000000 31.881607
RightHand 4.556942 -0.000000 1.562422
RightHandThumb1 -24.326973 -0.000000 -32.862282
LeftUpLeg 132.762752 -23.934216 -24.851775
LeftLeg 126.084106 -0.000000 -0.000000
LeftFoot -31.482755 6.656474 -16.458546
LeftToeBase -21.911849 -0.000000 0.000000
RightUpLeg 121.372209 31.815306 0.389160
RightLeg 107.640624 -0.000000 -0.000000
RightFoot -38.746531 34.844092 -11.137314
RightToeBase 4.518175 -0.000000 -0.000000
779
root -0.284691 22.414628 0.793329 -738.862887 -56.631824 564.275750
Spine 202.304484 -11.553515 -7.097836
Head 16.884185 1.061368 5.073455
LeftShoulder -7.252865 24.695321 23.925983
LeftArm 17.894465 7.923287 -83.180572
LeftForeArm 16.807078 -0.000000 38.987603
LeftHand -12.701002 -0.000000 -0.352921
LeftHandThumb1 -26.253704 0.000000 33.147579
RightShoulder -26.996115 -52.166953 -6.911038
RightArm 56.672418 -6.945538 38.742026
RightForeArm 5.867137 -0.000000 31.737679
RightHand 4.598027 -0.000000 1.386035
RightHandThumb1 -24.326973 -0.000000 -32.862282
LeftUpLeg 132.711311 -23.776457 -24.747387
LeftLeg 126.033980 -0.000000 -0.000000
LeftFoot -31.585802 6.615994 -16.523901
LeftToeBase -21.817373 -0.000000 0.000000
RightUpLeg 121.374661 31.736518 0.459674
RightLeg 107.679361 -0.000000 -0.000000
RightFoot -38.749618 34.610383 -11.116247
RightToeBase 4.242613 -0.000000 -0.000000
780
root -0.268656 22.418005 0.798328 -738.916585 -56.802479 564.291628
Spine 202.414796 -11.417535 -7.094610
Head 16.983631 1.058185 5.039757
LeftShoulder -7.188794 24.628533 23.937666
LeftArm 17.997880 7.846253 -83.064709
LeftForeArm 16.930249 0.000000 39.004728
LeftHand -12.636507 -0.000000 -0.476086
LeftHandThumb1 -26.253704 0.000000 33.147579
RightShoulder -27.032287 -52.175619 -6.904435
RightArm 56.644697 -6.969378 38.728630
RightForeArm 5.857502 -0.000000 31.611910
RightHand 4.560775 -0.000000 1.420719
RightHandThumb1 -24.326973 -0.000000 -32.862282
LeftUpLeg 132.635118 -23.690839 -24.671060
LeftLeg 126.000710 -0.000000 -0.000000
LeftFoot -31.642641 6.589693 -16.505993
LeftToeBase -21.738109 -0.000000 0.000000
RightUpLeg 121.408291 31.670556 0.539410
RightLeg 107.692767 -0.000000 -0.000000
RightFoot -38.729490 34.470963 -11.002072
RightToeBase 4.078862 -0.000000 -0.000000
781
root -0.249850 22.422773 0.803605 -738.923124 -57.001561 564.233884
Spine 202.540096 -11.237488 -7.042375
Head 17.094405 1.109148 4.984316
LeftShoulder -7.178419 24.568624 23.916786
LeftArm 18.099589 7.796713 -82.924471
LeftForeArm 17.037680 -0.000000 39.043859
LeftHand -12.615242 -0.000000 -0.482074
LeftHandThumb1 -26.253704 0.000000 33.147579
RightShoulder -27.024350 -52.179500 -6.933225
RightArm 56.618616 -6.964402 38.730977
RightForeArm 5.788980 -0.000000 31.480761
RightHand 4.651412 -0.000000 1.484064
RightHandThumb1 -24.326973 -0.000000 -32.862282
LeftUpLeg 132.546212 -23.724423 -24.564503
LeftLeg 125.955905 -0.000000 -0.000000
LeftFoot -31.649066 6.635976 -16.335270
LeftToeBase -21.681668 -0.000000 0.000000
RightUpLeg 121.451637 31.616538 0.673986
RightLeg 107.723321 -0.000000 -0.000000
RightFoot -38.704884 34.358578 -10.884537
RightToeBase 3.959636 -0.000000 -0.000000
782
root -0.226586 22.423188 0.809101 -739.145630 -57.166288 564.292017
Spine 202.754418 -11.091292 -7.060242
Head 17.218834 1.122598 4.948834
LeftShoulder -7.155933 24.524337 23.947428
LeftArm 18.204763 7.796578 -82.772562
LeftForeArm 17.118358 -0.000000 39.125048
LeftHand -12.699171 -0.000000 -0.392437
LeftHandThumb1 -26.253704 0.000000 33.147579
RightShoulder -27.023114 -52.179278 -6.942668
RightArm 56.560768 -7.001610 38.734569
RightForeArm 5.680780 -0.000000 31.398043
RightHand 4.629281 -0.000000 1.507411
RightHandThumb1 -24.326973 -0.000000 -32.862282
LeftUpLeg 132.567000 -23.629521 -24.573066
LeftLeg 125.941678 -0.000000 -0.000000
LeftFoot -31.700835 6.649020 -16.247860
LeftToeBase -21.557723 -0.000000 0.000000
RightUpLeg 121.617442 31.533548 0.790464
RightLeg 107.751596 -0.000000 -0.000000
RightFoot -38.687712 34.173793 -10.758551
RightToeBase 3.828381 -0.000000 -0.000000
783
root -0.201313 22.424373 0.813502 -739.315595 -57.344590 564.277845
Spine 202.981461 -10.957729 -7.052682
Head 17.333555 1.150620 4.912623
LeftShoulder -7.114556 24.444890 23.993243
LeftArm 18.266356 7.735015 -82.658025
LeftForeArm 17.113122 -0.000000 39.211328
LeftHand -12.718278 -0.000000 -0.449276
LeftHandThumb1 -26.253704 0.000000 33.147579
RightShoulder -27.089243 -52.195274 -6.895094
RightArm 56.534116 -7.022895 38.693144
RightForeArm 5.593600 -0.000000 31.313592
RightHand 4.592296 -0.000000 1.553795
RightHandThumb1 -24.326973 -0.000000 -32.862282
LeftUpLeg 132.594266 -23.561726 -24.550971
LeftLeg 125.910706 -0.000000 -0.000000
LeftFoot -31.725054 6.654927 -16.151198
LeftToeBase -21.551904 -0.000000 0.000000
RightUpLeg 121.764109 31.462788 0.925939
RightLeg 107.807479 -0.000000 -0.000000
RightFoot -38.674990 33.900785 -10.687847
RightToeBase 3.641435 -0.000000 -0.000000
784
root -0.177439 22.429125 0.815540 -739.418471 -57.537271 564.224300
Spine 203.173488 -10.818371 -7.012191
Head 17.446424 1.218774 4.881326
LeftShoulder -7.068277 24.358083 24.062793
LeftArm 18.339090 7.699555 -82.583864
LeftForeArm 17.376619 -0.000000 39.227742
LeftHand -12.768594 -0.000000 -0.314405
LeftHandThumb1 -26.253704 0.000000 33.147579
RightShoulder -27.095632 -52.185353 -6.898955
RightArm 56.479805 -7.050055 38.691320
RightForeArm 5.503827 -0.000000 31.213310
RightHand 4.607100 -0.000000 1.752225
RightHandThumb1 -24.326973 -0.000000 -32.862282
LeftUpLeg 132.608093 -23.489297 -24.498433
LeftLeg 125.859317 -0.000000 -0.000000
LeftFoot -31.753898 6.615393 -16.066338
LeftToeBase -21.439997 -0.000000 0.000000
RightUpLeg 121.878418 31.414420 1.038856
RightLeg 107.854404 -0.000000 -0.000000
RightFoot -38.696409 33.532805 -10.696164
RightToeBase 3.339649 -0.000000 -0.000000
